# xmcd
#
# Track frame offsets:
# 150
# 18301
# 39078
# 63217
# 96384
# 118532
# 143337
# 159888
# 191703
# 211046
# 225083
#
# Disc length: 3275 seconds
#
# Revision: 0
# Processed by: cddbd v1.5PL3 Copyright (c) Steve Scherf et al.
# Submitted via: Axialis_AX_CDPlayer 2.6
#
DISCID=770cc90b
DTITLE=The Charlie Daniels Band - Road Dogs
DYEAR=1900
DGENRE=
TTITLE0=Road dogs
TTITLE1=Ain't no law in California
TTITLE2=Even up the score
TTITLE3=Across the line
TTITLE4=Matyr
TTITLE5=How much I love you
TTITLE6=Wild wild young man
TTITLE7=Sidewinder
TTITLE8=Stannding up the rain
TTITLE9=It's about time
TTITLE10=Sail away
EXTD=
EXTT0=
EXTT1=
EXTT2=
EXTT3=
EXTT4=
EXTT5=
EXTT6=
EXTT7=
EXTT8=
EXTT9=
EXTT10=
PLAYORDER=
